<svg xmlns="http://www.w3.org/2000/svg" width="32" height="32" viewBox="0 0 32 32"><g fill="#483898" fill-rule="evenodd"><path fill-opacity=".1" d="M15.673 31.347C7.017 31.347 0 24.33 0 15.673 0 7.017 7.017 0 15.673 0c8.657 0 15.674 7.017 15.674 15.673 0 8.657-7.017 15.674-15.674 15.674z"/><path fill-rule="nonzero" d="M22.908 9.35c-.053.048-.102.1-.145.155l-8.487 10.852-3.882-4.964c-.417-.534-1.242-.666-1.84-.293a1.3 1.3 0 0 0-.174.13c-.46.431-.508 1.095-.113 1.575l4.377 5.597c.63.805 1.872 1.001 2.773.439a1.9 1.9 0 0 0 .491-.44l8.983-11.484c.394-.48.346-1.144-.113-1.576a1.437 1.437 0 0 0-1.87.01z"/></g></svg>