<svg xmlns="http://www.w3.org/2000/svg" width="600" height="600" viewBox="0 0 600 600">
  <g fill="none" fill-rule="evenodd">
    <rect width="600" height="600" fill="#50B8B8"/>
    <g fill="#FFF" transform="translate(140 239)">
      <g transform="translate(.341)">
        <path d="M128.043058,121.10699 L126.457583,121.10699 L124.767431,116.565031 L118.006823,116.565031 L116.316671,121.10699 L114.731196,121.10699 L120.858635,106.113423 L122.020295,106.113423 L128.043058,121.10699 Z M124.343616,115.406577 L121.491804,107.698005 L118.535314,115.404025 L124.343616,115.404025 L124.343616,115.406577 Z M130.578286,121.10699 L130.578286,106.113423 L134.591758,106.113423 C136.17468,106.113423 137.550801,106.113423 138.712461,106.536999 C140.826428,107.379048 142.51658,110.020018 142.51658,113.503037 C142.51658,116.355795 141.459597,118.677808 139.874122,119.945984 C138.500554,121.002372 137.126987,121.002372 134.591758,121.002372 L130.578286,121.002372 L130.578286,121.10699 Z M132.059084,119.841366 L134.275174,119.841366 C135.544065,119.841366 137.234217,119.841366 138.2912,119.41779 C139.769445,118.784978 141.035782,116.672201 141.035782,113.610207 C141.035782,111.076406 139.981352,108.542606 138.18397,107.802624 C137.341447,107.486217 136.493818,107.486217 134.698989,107.486217 L132.05653,107.486217 L132.05653,119.841366 L132.059084,119.841366 Z M150.546079,121.10699 L149.277188,121.10699 L143.782918,106.113423 L145.365839,106.113423 L150.017587,119.206002 L154.771459,106.115975 L156.249704,106.115975 L150.546079,121.10699 Z M161.32016,121.10699 L159.839362,121.10699 L159.839362,106.113423 L161.32016,106.113423 L161.32016,121.10699 Z M174.948606,109.703612 C174.806269,109.217375 174.592915,108.754794 174.315437,108.330818 C173.575038,107.274429 172.308701,106.850854 171.03981,106.850854 C169.456888,106.850854 167.554829,107.488769 167.554829,109.491824 C167.554829,111.288194 169.244981,111.813836 170.090057,112.132794 C170.511319,112.237412 172.625285,112.765606 173.153777,112.974843 C173.9963,113.189182 176.638758,114.138401 176.638758,116.988607 C176.638758,119.101384 174.843929,121.530566 171.03981,121.530566 C169.456888,121.530566 168.292675,121.10699 167.554829,120.578796 C166.390616,119.838814 165.757447,118.677808 165.54554,117.305013 L166.919107,116.565031 C166.919107,117.200395 167.026337,117.833208 167.235692,118.361402 C167.871413,119.734196 169.456888,120.26239 171.03981,120.26239 C173.891623,120.26239 175.26519,118.680359 175.26519,117.095777 C175.29171,116.31237 174.937963,115.564408 174.315437,115.087619 C173.682268,114.561977 172.732515,114.245571 170.827903,113.821995 C168.716489,113.293801 166.285939,112.4492 166.285939,109.703612 C166.285939,106.746235 168.928397,105.799569 171.251718,105.799569 C175.055836,105.799569 176.110266,108.223648 176.426851,109.0708 L174.948606,109.703612 Z M190.267204,119.522408 C188.786406,121.211608 186.991577,121.530566 185.722687,121.530566 C183.823181,121.530566 182.344936,121.002372 181.076045,119.522408 C180.019062,118.256783 179.173986,116.355795 179.173986,113.610207 C179.173986,109.491824 181.183275,105.692399 185.72524,105.692399 C190.691019,105.692399 192.169264,110.127188 192.169264,113.505588 C192.169264,115.827601 191.536095,118.149614 190.267204,119.522408 L190.267204,119.522408 Z M185.829917,106.958023 C182.025798,106.958023 180.864138,110.76 180.864138,113.610207 C180.864138,116.355795 181.921121,120.26239 185.829917,120.26239 C190.476558,120.26239 190.795696,114.771213 190.795696,113.505588 C190.691019,110.76 189.634036,106.958023 185.829917,106.958023 L185.829917,106.958023 Z M206.95937,121.10699 L205.164541,121.10699 L200.41067,114.454807 L196.920582,114.454807 L196.920582,121.10699 L195.439784,121.10699 L195.439784,106.008805 L199.667718,106.008805 C202.307623,106.008805 202.943344,106.008805 203.893098,106.325211 C206.323649,107.169811 206.535556,109.598994 206.535556,110.336424 C206.535556,111.921006 205.899834,112.765606 205.371342,113.189182 C204.316912,114.243019 202.836114,114.243019 202.098268,114.350189 L206.956817,121.10699 L206.95937,121.10699 Z M196.818458,113.191734 L200.303439,113.191734 C201.255746,113.191734 202.205499,113.191734 202.838667,113.084564 C204.424142,112.768158 205.059864,111.502534 205.059864,110.338976 C205.059864,108.861563 204.319465,107.805175 202.838667,107.488769 C202.417406,107.384151 202.205499,107.384151 200.303439,107.384151 L196.818458,107.384151 L196.818458,113.191734 Z M218.685757,109.703612 C218.543421,109.217375 218.330066,108.754794 218.052589,108.330818 C217.31219,107.274429 216.045852,106.850854 214.776962,106.850854 C213.19404,106.850854 211.291981,107.488769 211.291981,109.491824 C211.291981,111.288194 212.982133,111.813836 213.827209,112.132794 C214.24847,112.237412 216.362437,112.765606 216.890928,112.974843 C217.733451,113.189182 220.375909,114.138401 220.375909,116.988607 C220.375909,119.101384 218.58108,121.530566 214.776962,121.530566 C213.19404,121.530566 212.029826,121.10699 211.291981,120.578796 C210.127767,119.838814 209.494598,118.677808 209.282691,117.305013 L210.763489,116.565031 C210.763489,117.200395 210.868166,117.833208 211.080073,118.361402 C211.820472,119.734196 213.298717,120.26239 214.884192,120.26239 C217.736004,120.26239 219.109572,118.680359 219.109572,117.095777 C219.13549,116.311917 218.780751,115.563867 218.157266,115.087619 C217.524097,114.561977 216.574344,114.245571 214.672285,113.821995 C212.558318,113.293801 210.127767,112.4492 210.127767,109.703612 C210.127767,106.746235 212.770225,105.799569 215.093546,105.799569 C218.897665,105.799569 219.954648,108.223648 220.271232,109.0708 L218.688311,109.703612 L218.685757,109.703612 Z M16.1636744,51.7375022 C9.5077434,51.7375022 5.07045606,53.2174663 1.58547493,58.0732794 L1.58547493,58.1778976 L4.85854879,61.0281042 L4.85854879,60.9234861 C7.39632992,57.2286792 10.3528194,55.7487152 16.1636744,55.7487152 C24.5097574,55.7487152 27.6781542,59.2342857 27.7853844,65.7792992 L27.7853844,70.3212579 L14.4735224,70.3212579 C5.49427062,70.3212579 0,74.6488769 0,82.2502785 C0,85.3122731 1.16166038,88.3742677 3.06371968,90.3824259 C5.7036248,93.1280144 9.19115903,94.1844025 15.3185984,94.1844025 C21.0222232,94.1844025 24.2978501,93.1280144 27.7853844,89.6424438 L27.7853844,93.6536568 L32.3299019,93.6536568 L32.3299019,65.2536568 C32.2226717,56.5933154 27.0449854,51.7375022 16.1636744,51.7375022 Z M15.2139213,90.0634681 C7.81759137,90.0634681 4.54196442,87.5296676 4.54196442,82.1456604 C4.54196442,76.6544834 7.92226846,73.9114465 15.002014,73.9114465 L27.7853844,73.9114465 L27.7853844,79.1882839 C27.7853844,82.9902606 27.0449854,85.5240611 25.4620636,87.0040252 C22.6076981,89.747062 19.0154868,90.0660198 15.2139213,90.0660198 L15.2139213,90.0634681 Z M66.8733412,52.2656963 L66.8733412,77.9226595 C66.8733412,85.6286792 62.6479612,90.1706379 55.2516313,90.1706379 C47.8578544,90.1706379 43.9490588,85.8404672 43.9490588,77.9226595 L43.9490588,52.2656963 L39.4045412,52.2656963 L39.4045412,78.6626415 C39.4045412,83.5184546 40.9900162,87.5296676 43.7371515,90.1706379 C46.3796097,92.7044385 50.0764981,94.0772327 54.7231396,94.0772327 C59.6889186,94.0772327 63.7049445,92.2834142 66.7686642,88.7978437 L66.7686642,93.5490386 L71.3106286,93.5490386 L71.3106286,52.2631447 L66.8733412,52.2631447 L66.8733412,52.2656963 Z M96.1369704,72.4314825 L109.553509,52.2656963 L104.064345,52.2656963 L93.8162027,68.7366757 L83.4633833,52.2656963 L77.9691127,52.2656963 L91.3856518,72.4314825 L77.3359439,93.5490386 L82.8276615,93.5490386 L93.8162027,76.3380773 L104.697514,93.5490386 L110.191784,93.5490386 L96.1369704,72.4314825 Z M128.888134,51.7375022 C122.232203,51.7375022 117.794915,53.2174663 114.309934,58.0732794 L114.309934,58.1778976 L117.583008,61.0281042 L117.583008,60.9234861 C120.118236,57.2286792 123.077279,55.7487152 128.888134,55.7487152 C137.234217,55.7487152 140.507291,59.2342857 140.507291,65.7792992 L140.507291,70.3212579 L127.197982,70.3212579 C118.216177,70.3212579 112.721906,74.7560467 112.721906,82.2502785 C112.721906,85.3122731 113.88612,88.3742677 115.785626,90.3824259 C118.428084,93.1280144 121.913065,94.1844025 128.040505,94.1844025 C133.746682,94.1844025 137.022309,93.1280144 140.507291,89.6424438 L140.507291,93.6536568 L145.051808,93.6536568 L145.051808,65.2536568 C144.944578,56.5933154 139.766892,51.7375022 128.888134,51.7375022 Z M140.402613,73.9114465 L140.402613,79.1882839 C140.402613,82.9902606 139.662215,85.5240611 138.079293,87.0040252 C135.22748,89.8542318 131.635269,90.1680863 127.83115,90.1680863 C120.43482,90.1680863 117.159194,87.6368374 117.159194,82.2502785 C117.159194,76.7616532 120.542051,74.0160647 127.619243,74.0160647 L140.402613,74.0160647 L140.402613,73.9114465 Z M180.971368,55.644097 C178.32891,53.1102965 174.632022,51.7375022 169.982827,51.7375022 C165.017048,51.7375022 161.003575,53.5313208 157.939856,57.0168913 L157.939856,52.2656963 L153.395338,52.2656963 L153.395338,93.6536568 L157.939856,93.6536568 L157.939856,67.9966936 C157.939856,60.2906739 162.165236,55.7487152 169.561565,55.7487152 C176.850665,55.7487152 180.864138,60.0788859 180.864138,67.9966936 L180.864138,93.6536568 L185.408656,93.6536568 L185.408656,67.2618149 C185.301425,62.298832 183.718504,58.2850674 180.971368,55.6466487 L180.971368,55.644097 Z M219.638064,56.2769093 C216.679021,53.3220845 212.770225,51.7349506 208.123584,51.7349506 C203.474389,51.7349506 199.565594,53.3220845 196.606551,56.2769093 C192.169264,60.7116981 191.428865,67.0449236 191.428865,72.9596765 C191.428865,78.8718778 192.169264,85.207655 196.606551,89.6424438 C199.565594,92.5998203 203.474389,94.1844025 208.121031,94.1844025 C212.767672,94.1844025 216.679021,92.5998203 219.635511,89.6424438 C224.075351,85.3122731 224.813197,78.8744295 224.813197,72.9596765 C224.813197,67.0474753 224.072798,60.60708 219.638064,56.2769093 L219.638064,56.2769093 Z M208.123584,90.1708694 C204.921026,90.1904615 201.842076,88.9364408 199.565594,86.6850674 C196.182736,83.3066667 195.866152,77.7108715 195.866152,72.9596765 C195.866152,68.2084816 196.078059,62.6126864 199.565594,59.2317341 C201.781684,57.0168913 204.740727,55.7487152 208.121031,55.7487152 C211.396658,55.7487152 214.460377,57.0168913 216.679021,59.2342857 C220.059325,62.6126864 220.375909,68.2084816 220.375909,72.9622282 C220.375909,77.7108715 220.164002,83.3066667 216.679021,86.6850674 C214.460377,88.7978437 211.501335,90.0660198 208.121031,90.1708694 L208.123584,90.1708694 Z M318.522169,1.2681761 L312.923222,1.2681761 L204.107558,38.1141779 L212.029826,38.1141779 L294.221766,10.8751842 L244.461852,38.1167296 L252.386674,38.1167296 L318.522169,1.2681761 Z"/>
        <polygon points="231.574 0 225.446 0 204.108 38.117 212.03 38.117 228.301 8.237 244.462 38.117 252.387 38.117"/>
      </g>
      <path d="M228.551303,57.1048446 L229.283302,57.1048446 C229.441082,57.1048446 229.59369,57.0996696 229.733364,57.0893197 C229.862623,57.0807055 229.989462,57.0500782 230.108416,56.9987578 C230.216489,56.9524226 230.308331,56.8749599 230.372246,56.7762343 C230.44475,56.6479807 230.478868,56.5015801 230.470536,56.3544746 C230.476638,56.2277795 230.446105,56.10201 230.382592,55.9922271 C230.326173,55.9044584 230.247676,55.8330723 230.154975,55.7852285 C230.054592,55.7335553 229.946119,55.6994266 229.83424,55.6843166 C229.716884,55.6672907 229.598465,55.6586439 229.479881,55.6584418 L228.548717,55.6584418 L228.548717,57.1048446 L228.551303,57.1048446 Z M227.850344,55.0866082 L229.59369,55.0866082 C230.129109,55.0866082 230.524854,55.1952824 230.78351,55.4100435 C231.042167,55.6248045 231.171495,55.9508274 231.171495,56.3855244 C231.171495,56.7943467 231.057686,57.0944947 230.830069,57.2859684 C230.5889,57.4815476 230.293837,57.5988924 229.984261,57.6223411 L231.274958,59.6302277 L230.522267,59.6302277 L229.293648,57.6740908 L228.551303,57.6740908 L228.551303,59.6302277 L227.850344,59.6302277 L227.850344,55.0866082 Z M226.169075,57.342893 C226.169075,57.8215773 226.246672,58.2614494 226.409626,58.6676841 C226.871004,59.8911612 228.048657,60.6948138 229.355725,60.6781581 C230.20797,60.6868992 231.025307,60.3399706 231.611212,59.7207896 C231.895734,59.4258165 232.118179,59.0739189 232.281133,58.6676841 C232.446071,58.2456899 232.528606,57.7959762 232.52427,57.342893 C232.52427,56.8771461 232.4415,56.4450365 232.281133,56.0439767 C231.975053,55.2643507 231.372248,54.6380678 230.605037,54.3026009 C230.21099,54.1313504 229.785333,54.0449545 229.355725,54.0490276 C228.054175,54.035244 226.880422,54.8300502 226.409626,56.0439767 C226.245585,56.457207 226.163022,56.8982856 226.166489,57.342893 L226.169075,57.342893 Z M225.465529,57.342893 C225.464811,56.3129332 225.875272,55.3253305 226.60573,54.599472 C227.336188,53.8736136 228.326158,53.4696053 229.355725,53.477194 C230.902664,53.475685 232.30206,54.3953812 232.914841,55.8162783 C233.121767,56.2872001 233.225229,56.7943467 233.225229,57.342893 C233.238002,58.3897857 232.824321,59.3967962 232.07938,60.1321993 C231.35699,60.8522431 230.375435,61.2513451 229.355725,61.2396419 C228.332041,61.2441962 227.347489,60.8465193 226.613965,60.1321993 C225.867125,59.3976653 225.451531,58.3905451 225.462942,57.342893 L225.465529,57.342893 Z"/>
    </g>
  </g>
</svg>
