<svg xmlns="http://www.w3.org/2000/svg" width="28" height="28" viewBox="0 0 28 28">
    <g fill="none" fill-rule="evenodd">
        <path d="M-10-10h48v48h-48z"/>
        <path fill="#092E85" fill-rule="nonzero" d="M26.6 1.42c-.78-.78-2.04-.78-2.82 0L14 11.18 4.22 1.4C3.44.62 2.18.62 1.4 1.4c-.78.78-.78 2.04 0 2.82L11.18 14 1.4 23.78c-.78.78-.78 2.04 0 2.82.78.78 2.04.78 2.82 0L14 16.82l9.78 9.78c.78.78 2.04.78 2.82 0 .78-.78.78-2.04 0-2.82L16.82 14l9.78-9.78c.76-.76.76-2.04 0-2.8z"/>
    </g>
</svg>
