<svg height="32" viewBox="0 0 35 32" width="35" xmlns="http://www.w3.org/2000/svg"><path d="m1.776 5.92h2.168a4.392 4.392 0 0 0 8.456 0h20.576a1.2 1.2 0 1 0 0-2.4h-20.568a4.392 4.392 0 0 0 -8.456 0h-2.176a1.2 1.2 0 1 0 0 2.4zm6.4-3.2a2 2 0 1 1 0 4 2 2 0 0 1 0-4zm24.8 12h-11.504a4.392 4.392 0 0 0 -8.192 0h-11.504a1.2 1.2 0 1 0 0 2.4h11.28a4.4 4.4 0 0 0 8.648 0h11.272a1.2 1.2 0 1 0 0-2.4zm-15.6 3.6a2 2 0 1 1 0-4 2 2 0 0 1 0 4zm15.6 7.6h-2.168a4.392 4.392 0 0 0 -8.456 0h-20.576a1.2 1.2 0 1 0 0 2.4h20.568a4.392 4.392 0 0 0 8.456 0h2.176a1.2 1.2 0 1 0 0-2.4zm-6.4 3.2a2 2 0 1 1 0-4 2 2 0 0 1 0 4z" fill="#483898" fill-rule="evenodd"/></svg>