<svg height="48" viewBox="0 0 48 48" width="48" xmlns="http://www.w3.org/2000/svg"><g fill="#50b078" fill-rule="evenodd"><rect fill-opacity=".1" height="48" rx="8" width="48"/><path d="M19.776 8.32h-8.8a2.4 2.4 0 0 0-2.4 2.4v8.8a2.4 2.4 0 0 0 2.4 2.4h8.8a2.4 2.4 0 0 0 2.4-2.4v-8.8a2.4 2.4 0 0 0-2.4-2.4zm0 11.2h-8.8v-8.8h8.8zm17.6-11.2h-8.8a2.4 2.4 0 0 0-2.4 2.4v8.8a2.4 2.4 0 0 0 2.4 2.4h8.8a2.4 2.4 0 0 0 2.4-2.4v-8.8a2.4 2.4 0 0 0-2.4-2.4zm0 11.2h-8.8v-8.8h8.8zm-17.6 6.4h-8.8a2.4 2.4 0 0 0-2.4 2.4v8.8a2.4 2.4 0 0 0 2.4 2.4h8.8a2.4 2.4 0 0 0 2.4-2.4v-8.8a2.4 2.4 0 0 0-2.4-2.4zm0 11.2h-8.8v-8.8h8.8zm17.6-11.2h-8.8a2.4 2.4 0 0 0-2.4 2.4v8.8a2.4 2.4 0 0 0 2.4 2.4h8.8a2.4 2.4 0 0 0 2.4-2.4v-8.8a2.4 2.4 0 0 0-2.4-2.4zm0 11.2h-8.8v-8.8h8.8z"/></g></svg>