<svg xmlns="http://www.w3.org/2000/svg" width="48" height="48" viewBox="0 0 48 48"><g fill="gray" fill-rule="evenodd"><rect width="48" height="48" fill-opacity=".1" rx="8"/><path d="M39.254 13.358h-7.535v-2.511a2.512 2.512 0 0 0-2.512-2.512H19.161a2.512 2.512 0 0 0-2.512 2.512v2.511H9.114a2.512 2.512 0 0 0-2.511 2.512V36.8a2.512 2.512 0 0 0 2.511 2.512h30.14a2.512 2.512 0 0 0 2.512-2.512V15.87a2.512 2.512 0 0 0-2.512-2.512zm-20.093-2.511h10.046v2.511H19.161v-2.511zm20.093 5.023v6.287a1.247 1.247 0 0 0-.561.126 52.108 52.108 0 0 1-10.499 3.566 2.512 2.512 0 0 0-2.335-1.607h-3.35a2.512 2.512 0 0 0-2.36 1.674 46.323 46.323 0 0 1-10.616-3.633 1.24 1.24 0 0 0-.46-.126V15.87h30.181zM25.859 26.753v2.512h-3.35v-2.512h3.35zM9.114 36.8V24.903a49.73 49.73 0 0 0 10.884 3.584v.778a2.512 2.512 0 0 0 2.512 2.512h3.349a2.512 2.512 0 0 0 2.511-2.512v-.904a43.945 43.945 0 0 0 10.884-3.65V36.8H9.114z"/></g></svg>