<svg height="48" viewBox="0 0 48 48" width="48" xmlns="http://www.w3.org/2000/svg"><g fill="#50b078" fill-rule="evenodd"><rect fill-opacity=".1" height="48" rx="8" width="48"/><path d="m24.5 7c9.6649831 0 17.5 7.8350169 17.5 17.5s-7.8350169 17.5-17.5 17.5-17.5-7.8350169-17.5-17.5 7.8350169-17.5 17.5-17.5zm0 32.6136364c8.3470309 0 15.1136364-6.7666055 15.1136364-15.1136364s-6.7666055-15.11363636-15.1136364-15.11363636-15.11363636 6.76660546-15.11363636 15.11363636 6.76660546 15.1136364 15.11363636 15.1136364zm6.6340909-23.8636364-.0477273-.0238636c.456283-.2179173 1.0003772-.1245655 1.3579259.2329832.3575486.3575487.4509004.9016429.2329832 1.3579259l-5.3693182 10.0465909v.0556818l-.0875.1193182-.0795454.0954545-.1113636.0954546-.1034091.0715909h-.0556819l-9.8397727 5.4488636c-.456283.2179172-1.0003772.1245654-1.3579258-.2329832-.3575487-.3575487-.4509005-.9016429-.2329833-1.3579259l5.4170455-10.0227273v-.0556818l.0875-.1193182.0795454-.0954545.1113637-.0954546.1034091-.0715909h.0556818zm-8.9806818 8.4954545-2.6965909 5.0431819 4.9397727-2.7363637zm3.9056818.596591 2.6965909-5.0431819-4.9397727 2.7363637zm10.3727273-1.1375c.4393174 0 .7954545.3561371.7954545.7954545s-.3561371.7954545-.7954545.7954545h-2.3863637c-.4393174 0-.7954545-.3561371-.7954545-.7954545s.3561371-.7954545.7954545-.7954545zm-20.6818182.7954545c0 .4393174-.3561371.7954545-.7954545.7954545h-2.3863637c-.4393174 0-.7954545-.3561371-.7954545-.7954545s.3561371-.7954545.7954545-.7954545h2.3863637c.4393174 0 .7954545.3561371.7954545.7954545zm8.75 8.75c.4393174 0 .7954545.3561371.7954545.7954545v2.3863637c0 .4393174-.3561371.7954545-.7954545.7954545s-.7954545-.3561371-.7954545-.7954545v-2.3863637c0-.4393174.3561371-.7954545.7954545-.7954545zm0-17.5c-.4393174 0-.7954545-.3561371-.7954545-.7954545v-2.3863637c0-.4393174.3561371-.7954545.7954545-.7954545s.7954545.3561371.7954545.7954545v2.3863637c0 .4393174-.3561371.7954545-.7954545.7954545z"/></g></svg>