<svg xmlns="http://www.w3.org/2000/svg" width="1440" height="888" viewBox="0 0 1440 888">
    <g fill="none" fill-rule="evenodd">
        <path fill="#092E85" d="M0 0h1440v888H0z"/>
        <path fill="#B2DBFF" d="M1152.942 640a34.179 34.179 0 0 1 31.24 20.996 34.18 34.18 0 0 1 31.24-20.996c19.218.328 34.533 16.167 34.216 35.384 0 45.472-54.475 84.616-65.456 84.616-10.982 0-65.455-39.144-65.455-84.616-.317-19.217 14.998-35.055 34.215-35.384zM1301.333 506.333h-8a2.667 2.667 0 0 1-2.666-2.666V413a2.667 2.667 0 0 1 2.666-2.667h8c5.891 0 10.667 4.776 10.667 10.667v74.667c0 5.89-4.776 10.666-10.667 10.666zm-18.666 0h-69.334a2.667 2.667 0 0 1-2.666-2.666V413a2.667 2.667 0 0 1 2.666-2.667h5.334v-8c0-7.363 5.97-13.333 13.333-13.333h32c7.364 0 13.333 5.97 13.333 13.333v8h5.334a2.667 2.667 0 0 1 2.666 2.667v90.667a2.667 2.667 0 0 1-2.666 2.666zm-16-104a2.667 2.667 0 0 0-2.667-2.666h-32a2.667 2.667 0 0 0-2.667 2.666v8h37.334v-8zM1184 495.667V421c0-5.891 4.776-10.667 10.667-10.667h8a2.667 2.667 0 0 1 2.666 2.667v90.667a2.667 2.667 0 0 1-2.666 2.666h-8c-5.891 0-10.667-4.775-10.667-10.666zM1202.333 256c-7.77 0-12.669-2.667-18.666-2.667-5.998 0-10.897 2.667-18.667 2.667-13.195 0-40-22.72-40-64 0-24.24 15.403-40 34.667-40 10.535 0 15.313 5.333 24 5.333 8.686 0 13.466-5.333 24-5.333 19.263 0 34.666 15.76 34.666 40-.001 41.28-26.804 64-40 64zM1189 149.333a4.474 4.474 0 0 1-4 2.667c-3.032 0-4-1.552-4-5.333 0-8.058 6.543-18.667 13.333-18.667 3.86 0 8 2.354 8 5.333 0 5.326-8.271 5.39-13.335 16h.002z"/>
        <path fill="#375BDD" d="M960.858 597.708a2.828 2.828 0 0 1-2.708-4.345l6.137-9.45-23.667-15.37a2.824 2.824 0 0 1-.83-3.906l7.689-11.84a2.824 2.824 0 0 1 3.905-.83l23.668 15.37 6.162-9.49a2.828 2.828 0 0 1 5.071.707l9.812 31.619a2.82 2.82 0 0 1-2.362 3.638l-32.877 3.897zM974.203 471.34a2.828 2.828 0 0 1-4.638-2.168v-11.269h-28.22a2.824 2.824 0 0 1-2.824-2.823v-14.118a2.824 2.824 0 0 1 2.824-2.823h28.22v-11.316a2.828 2.828 0 0 1 4.638-2.168l25.45 21.173a2.82 2.82 0 0 1 0 4.338l-25.45 21.175zM960.858 298.292a2.828 2.828 0 0 0-2.708 4.345l6.137 9.45-23.667 15.37a2.824 2.824 0 0 0-.83 3.906l7.689 11.84a2.824 2.824 0 0 0 3.905.83l23.668-15.37 6.162 9.49a2.828 2.828 0 0 0 5.071-.707l9.812-31.619a2.82 2.82 0 0 0-2.362-3.638l-32.877-3.897z"/>
        <path fill="#FFA516" d="M748.789 441.524h-3.562l.435 4.784c.343 3.775.514 7.559.515 11.352v25.66c0 5.77-4.678 10.449-10.45 10.449h-83.591c-5.77 0-10.449-4.679-10.449-10.45V457.66c0-3.79.172-7.574.515-11.352l.435-4.784h-3.562a5.224 5.224 0 0 1-5.224-5.225v-15.673a5.224 5.224 0 0 1 5.224-5.225h5.937l1.388-15.274a10.438 10.438 0 0 1 6.113-8.584 110.51 110.51 0 0 1 41.419-7.489 110.509 110.509 0 0 1 41.418 7.489 10.437 10.437 0 0 1 6.112 8.584l1.389 15.274h5.937a5.224 5.224 0 0 1 5.224 5.225v15.673a5.224 5.224 0 0 1-5.223 5.225zm-20.898 36.571a7.837 7.837 0 1 0-7.837-7.837 7.837 7.837 0 0 0 7.837 7.837zm-67.918 0a7.837 7.837 0 1 0-7.837-7.837 7.837 7.837 0 0 0 7.837 7.837zm49.632-86.204h-31.347a5.224 5.224 0 0 0 0 10.449h31.347a5.224 5.224 0 1 0 0-10.449zm26.141 55.363l-2.972-32.325a5.263 5.263 0 0 0-5.265-4.752h-67.153a5.263 5.263 0 0 0-5.265 4.752l-2.973 32.325a4.349 4.349 0 0 0 4.362 4.719h74.951a4.306 4.306 0 0 0 4.319-4.672l-.004-.047zm-86.222 51.74h15.673a2.612 2.612 0 0 1 2.613 2.611v2.613a5.224 5.224 0 0 1-5.225 5.224h-10.449a5.224 5.224 0 0 1-5.224-5.224v-2.613a2.612 2.612 0 0 1 2.612-2.612zm73.143 0h15.673a2.612 2.612 0 0 1 2.613 2.611v2.613a5.224 5.224 0 0 1-5.225 5.224H725.28a5.224 5.224 0 0 1-5.224-5.224v-2.613a2.612 2.612 0 0 1 2.612-2.612z"/>
        <path fill="#375BDD" d="M423.998 471.34a2.828 2.828 0 0 1-4.637-2.168v-11.269h-28.22a2.824 2.824 0 0 1-2.824-2.823v-14.118a2.824 2.824 0 0 1 2.823-2.823h28.22v-11.316a2.828 2.828 0 0 1 4.638-2.168l25.45 21.173a2.82 2.82 0 0 1 0 4.338l-25.45 21.175z"/>
        <path fill="#FFF" d="M193.306 510.388h-52.245c-7.213 0-13.061-5.848-13.061-13.061V398.06c0-7.213 5.848-13.061 13.061-13.061h52.245c7.214 0 13.061 5.848 13.061 13.061v99.266c0 7.213-5.847 13.06-13.06 13.06zm-26.122-26.123a7.837 7.837 0 1 0 7.836 7.837 7.837 7.837 0 0 0-7.836-7.837z"/>
    </g>
</svg>
