<svg xmlns="http://www.w3.org/2000/svg" width="48" height="48" viewBox="0 0 48 48"><g fill="#483898" fill-rule="evenodd"><rect width="48" height="48" fill-opacity=".1" rx="8"/><path d="M39.228 21.235L25.42 9.52a2.196 2.196 0 0 0-2.84 0L8.772 21.235A2.196 2.196 0 0 0 10.09 25.1v11.714c0 1.213.983 2.197 2.196 2.197h23.428a2.196 2.196 0 0 0 2.196-2.197V25.108a2.196 2.196 0 0 0 1.318-3.866v-.007zm-15.96 15.587h-1.464v-6.59h4.392v6.59h-2.928zm12.446-13.91v13.91h-7.321v-6.59a2.196 2.196 0 0 0-2.197-2.196h-4.392a2.196 2.196 0 0 0-2.197 2.197v6.589h-7.32v-13.91h-2.095L24 11.197 37.808 22.91h-2.094z"/></g></svg>