<svg xmlns="http://www.w3.org/2000/svg" width="48" height="48" viewBox="0 0 48 48">
    <g fill="#483898" fill-rule="evenodd">
        <rect width="48" height="48" fill-opacity=".1" rx="8"/>
        <path d="M39.58 15.122L25.224 7.567a2.267 2.267 0 0 0-2.108 0L8.76 15.122a2.267 2.267 0 0 0 1.058 4.27H38.53a2.267 2.267 0 0 0 1.058-4.27h-.007zM9.81 17.124L24.167 9.57l14.356 7.555H9.81zM38.522 38.28H9.81a1.133 1.133 0 1 0 0 2.267h28.71a1.133 1.133 0 0 0 0-2.267zM38.522 23.169a1.133 1.133 0 1 0 0-2.267H9.81a1.133 1.133 0 0 0 0 2.267h1.51v11.333h-1.51a1.133 1.133 0 0 0 0 2.267h28.71a1.133 1.133 0 1 0 0-2.267h-2.266V23.17h2.267zm-17.378 0h1.511v11.333h-1.511V23.17zm-2.267 11.333h-1.51V23.17h1.51v11.333zm6.045-11.333h1.51v11.333h-1.51V23.17zm3.778 0h1.51v11.333H28.7V23.17zm-15.112 0H15.1v11.333h-1.512V23.17zm20.4 11.333h-1.51V23.17h1.51v11.333z"/>
    </g>
</svg>
