<svg height="48" viewBox="0 0 48 48" width="48" xmlns="http://www.w3.org/2000/svg"><g fill="#f8b050" fill-rule="evenodd"><rect fill-opacity=".1" height="48" rx="8" width="48"/><path d="M39.224 38.872l-7.392-7.352c5.18-5.211 5.337-13.577.358-18.98-4.98-5.403-13.33-5.928-18.946-1.19-5.617 4.737-6.507 13.056-2.02 18.875 4.485 5.819 12.758 7.074 18.768 2.847l7.536 7.536a1.2 1.2 0 0 0 1.696-1.696zM10.976 21.92c0-6.186 5.014-11.2 11.2-11.2s11.2 5.014 11.2 11.2-5.014 11.2-11.2 11.2-11.2-5.014-11.2-11.2z"/></g></svg>