<svg xmlns="http://www.w3.org/2000/svg" width="84" height="92" viewBox="0 0 84 92">
    <path fill="#B2DBFF" fill-rule="evenodd" d="M55.175 91.33c-5.542 0-9.036-1.902-13.313-1.902-4.278 0-7.772 1.902-13.314 1.902C19.138 91.33.02 75.126.02 45.685c0-17.288 10.986-28.528 24.725-28.528 7.513 0 10.921 3.803 17.117 3.803 6.195 0 9.604-3.803 17.117-3.803 13.738 0 24.724 11.24 24.724 28.528-.001 29.441-19.117 45.645-28.528 45.645zm-9.51-76.075a3.19 3.19 0 0 1-2.852 1.902c-2.163 0-2.853-1.108-2.853-3.804C39.96 7.606 44.626.04 49.47.04c2.753 0 5.705 1.678 5.705 3.803 0 3.799-5.9 3.844-9.51 11.412z"/>
</svg>
