<svg xmlns="http://www.w3.org/2000/svg" width="48" height="48" viewBox="0 0 48 48"><g fill="#F07850" fill-rule="evenodd"><rect width="48" height="48" fill-opacity=".1" rx="8"/><path d="M33.172 8.313c-3.749 0-6.746 2.849-8.609 4.735-1.901-1.87-4.953-4.735-8.694-4.735-5.479 0-9.282 3.858-9.282 9.391 0 12.013 15.738 21.913 16.435 22.313.76.472 1.721.472 2.48 0 .666-.415 16.334-10.362 16.334-22.305-.055-5.799-3.35-9.399-8.664-9.399zm-9 29.74S8.88 28.582 8.88 17.703c0-4.202 2.731-7.043 6.934-7.043s7.936 5.478 8.718 5.478c.783 0 4.406-5.478 8.609-5.478 4.202 0 6.26 2.84 6.26 7.043.032 10.777-15.229 20.348-15.229 20.348z"/></g></svg>