<svg xmlns="http://www.w3.org/2000/svg" width="48" height="48" viewBox="0 0 48 48"><g fill="#483898" fill-rule="evenodd"><rect width="48" height="48" fill-opacity=".1" rx="8"/><g transform="translate(8 8)"><circle cx="1.776" cy="1.52" r="1.2"/><circle cx="1.776" cy="6.32" r="1.2"/><circle cx="1.776" cy="11.12" r="1.2"/><circle cx="1.776" cy="15.92" r="1.2"/><circle cx="1.776" cy="20.72" r="1.2"/><circle cx="1.776" cy="25.52" r="1.2"/><circle cx="6.576" cy="30.32" r="1.2"/><circle cx="11.376" cy="30.32" r="1.2"/><circle cx="16.176" cy="30.32" r="1.2"/><circle cx="20.976" cy="30.32" r="1.2"/><circle cx="25.776" cy="30.32" r="1.2"/><circle cx="30.576" cy="30.32" r="1.2"/><path d="M30.976 5.52a3.6 3.6 0 1 0-6.096 2.584l-2.568 5.072a3.552 3.552 0 0 0-.536-.056 3.608 3.608 0 0 0-3.6 3.6 3.52 3.52 0 0 0 0 .36l-5.784 2.024a3.592 3.592 0 0 0-5.96 3.824L.48 29.088a1.2 1.2 0 0 0 0 1.696c.06.049.124.092.192.128a1.192 1.192 0 0 0 2.2-.88l5.16-5.344c.513.28 1.088.428 1.672.432a3.608 3.608 0 0 0 3.6-3.6v-.2l5.872-2.056a3.593 3.593 0 1 0 5.2-4.96l2.648-5.216h.304a3.608 3.608 0 0 0 3.648-3.568zm-21.2 17.2a1.2 1.2 0 1 1 0-2.4 1.2 1.2 0 0 1 0 2.4zm12-4.8a1.2 1.2 0 1 1 0-2.4 1.2 1.2 0 0 1 0 2.4zm5.6-13.6a1.2 1.2 0 1 1 0 2.4 1.2 1.2 0 0 1 0-2.4z"/></g></g></svg>