<svg height="48" viewBox="0 0 48 48" width="48" xmlns="http://www.w3.org/2000/svg"><g fill="#50b8b8" fill-rule="evenodd"><rect fill-opacity=".1" height="48" rx="8" width="48"/><path d="m23.136 16.361c0 .36.133.704.37.958.214.255.518.4.838.4s.624-.145.839-.4l3.195-3.559v20.666c0 .748.563 1.355 1.258 1.355s1.258-.607 1.258-1.355v-20.964l3.355 3.812a1.258 1.258 0 0 0 1.828.072c.25-.24.4-.576.42-.935a1.42 1.42 0 0 0 -.319-.98l-5.032-5.871a1.173 1.173 0 0 0 -1.099-.397 1.184 1.184 0 0 0 -1.124.36l-5.451 5.872c-.227.261-.348.609-.336.966zm-5.242 22.996a1.19 1.19 0 0 0 1.116-.343l5.451-5.645a1.43 1.43 0 0 0 0-1.915 1.32 1.32 0 0 0 -1.887 0l-3.43 3.441v-20.34c0-.748-.563-1.355-1.258-1.355s-1.258.607-1.258 1.355v20.512l-3.162-3.812a1.167 1.167 0 0 0 -.85-.432 1.153 1.153 0 0 0 -.878.36c-.25.26-.387.62-.377.994.007.336.13.658.344.903l5.032 5.871c.294.342.732.496 1.157.406z"/></g></svg>