<svg xmlns="http://www.w3.org/2000/svg" width="33" height="32" viewBox="0 0 33 32">
    <path fill="#b2dbff" fill-rule="evenodd" d="M9.737.096C11.443.018 11.988 0 16.333 0c4.346 0 4.89.018 6.597.096 1.703.078 2.866.348 3.884.744a7.843 7.843 0 0 1 2.834 1.845 7.844 7.844 0 0 1 1.845 2.834c.396 1.018.666 2.181.744 3.884.078 1.707.096 2.252.096 6.597 0 4.345-.018 4.89-.096 6.597-.078 1.703-.348 2.866-.744 3.884a7.844 7.844 0 0 1-1.845 2.834 7.844 7.844 0 0 1-2.834 1.845c-1.018.396-2.18.666-3.884.744-1.706.078-2.251.096-6.597.096-4.345 0-4.89-.018-6.596-.096-1.703-.078-2.867-.348-3.884-.744a7.843 7.843 0 0 1-2.834-1.845 7.843 7.843 0 0 1-1.846-2.834C.778 25.463.507 24.3.43 22.597.352 20.89.333 20.345.333 16c0-4.345.019-4.89.097-6.597.077-1.703.348-2.866.743-3.884A7.843 7.843 0 0 1 3.02 2.685 7.842 7.842 0 0 1 5.853.84C6.87.444 8.033.174 9.737.096zm13.062 2.88c-1.687-.077-2.193-.093-6.466-.093-4.272 0-4.778.016-6.465.093-1.56.071-2.407.332-2.971.551-.747.29-1.28.637-1.84 1.197a4.957 4.957 0 0 0-1.197 1.84c-.219.563-.48 1.41-.55 2.97-.077 1.688-.094 2.194-.094 6.466s.017 4.778.094 6.465c.07 1.56.331 2.408.55 2.971.29.747.637 1.28 1.197 1.84s1.093.907 1.84 1.197c.564.219 1.411.48 2.971.55 1.687.078 2.193.094 6.465.094 4.273 0 4.779-.016 6.466-.093 1.56-.071 2.407-.332 2.97-.551a4.957 4.957 0 0 0 1.84-1.197c.56-.56.907-1.093 1.197-1.84.22-.563.48-1.41.551-2.97.077-1.688.093-2.194.093-6.466s-.016-4.778-.093-6.465c-.071-1.56-.332-2.408-.55-2.971a4.957 4.957 0 0 0-1.198-1.84 4.957 4.957 0 0 0-1.84-1.197c-.563-.219-1.41-.48-2.97-.55zM8.117 16a8.216 8.216 0 1 1 16.433 0 8.216 8.216 0 0 1-16.433 0zM11 16a5.333 5.333 0 1 0 10.667 0A5.333 5.333 0 0 0 11 16zm13.874-6.62a1.92 1.92 0 1 1 0-3.84 1.92 1.92 0 0 1 0 3.84z"/>
</svg>
