<svg xmlns="http://www.w3.org/2000/svg" width="48" height="48" viewBox="0 0 48 48">
    <g fill="#50B8B8" fill-rule="evenodd">
        <rect width="48" height="48" fill-opacity=".1" rx="8"/>
        <path d="M39.488 6.306H8.849a2.298 2.298 0 0 0-2.298 2.298v30.639A2.298 2.298 0 0 0 8.85 41.54h30.639a2.298 2.298 0 0 0 2.298-2.297V8.604a2.298 2.298 0 0 0-2.298-2.298zM8.849 20.86h2.298v6.127H8.85V20.86zm0 8.425h4.596v2.298H8.85v-2.298zm4.596 4.596a2.298 2.298 0 0 0 2.298-2.298v-2.298a2.298 2.298 0 0 0-2.298-2.298V20.86a2.298 2.298 0 0 0 2.298-2.298v-2.298a2.298 2.298 0 0 0-2.298-2.298V13.2h21.447v21.447H13.445v-.766zm0-17.617v2.298H8.85v-2.298h4.596zm26.043 22.979H8.849V33.88h2.298v.766a2.298 2.298 0 0 0 2.298 2.298h21.447a2.298 2.298 0 0 0 2.298-2.298V13.2a2.298 2.298 0 0 0-2.298-2.298H13.445a2.298 2.298 0 0 0-2.298 2.298v.766H8.85V8.604h30.639v30.639z"/>
        <path d="M31.828 23.157h-.812a6.848 6.848 0 0 0-1.233-3.224l.506-.506a1.149 1.149 0 1 0-1.624-1.624l-.506.506a6.848 6.848 0 0 0-3.225-1.233v-.43a1.149 1.149 0 0 0-2.297 0v.56a6.894 6.894 0 0 0-2.46 1.103l-.505-.506a1.149 1.149 0 1 0-1.623 1.624l.505.506a6.848 6.848 0 0 0-1.233 3.224h-.812a1.149 1.149 0 0 0 0 2.298h.942c.202.884.577 1.72 1.103 2.459l-.505.506a1.149 1.149 0 1 0 1.623 1.623l.506-.505c.739.526 1.574.9 2.459 1.103v.559a1.149 1.149 0 0 0 2.297 0v-.429a6.848 6.848 0 0 0 3.225-1.233l.506.505a1.149 1.149 0 1 0 1.624-1.623l-.506-.506c.526-.739.9-1.575 1.103-2.459h.942a1.149 1.149 0 1 0 0-2.298zm-7.66 5.362a4.596 4.596 0 1 1 0-9.191 4.596 4.596 0 0 1 0 9.191z"/>
    </g>
</svg>
