<svg xmlns="http://www.w3.org/2000/svg" width="88" height="81" viewBox="0 0 88 81">
    <path fill="#B2DBFF" fill-rule="evenodd" d="M80.11 80.11h-5.462a1.82 1.82 0 0 1-1.82-1.82V16.386a1.82 1.82 0 0 1 1.82-1.82h5.462a7.283 7.283 0 0 1 7.283 7.282v50.98a7.283 7.283 0 0 1-7.283 7.282zm-12.744 0H20.028a1.82 1.82 0 0 1-1.821-1.82V16.386a1.82 1.82 0 0 1 1.82-1.82h3.642V9.103A9.103 9.103 0 0 1 32.772 0h21.849a9.103 9.103 0 0 1 9.103 9.103v5.463h3.642a1.82 1.82 0 0 1 1.82 1.82V78.29a1.82 1.82 0 0 1-1.82 1.82zM56.44 9.103a1.82 1.82 0 0 0-1.82-1.82H32.772a1.82 1.82 0 0 0-1.82 1.82v5.463h25.49V9.103zM0 72.828v-50.98a7.283 7.283 0 0 1 7.283-7.282h5.462a1.82 1.82 0 0 1 1.82 1.82V78.29a1.82 1.82 0 0 1-1.82 1.82H7.283A7.283 7.283 0 0 1 0 72.828z"/>
</svg>
