<svg xmlns="http://www.w3.org/2000/svg" width="36" height="33" viewBox="0 0 36 33">
    <path fill="#b2dbff" fill-rule="evenodd" d="M28.044 32.727V21.222c0-3.011-1.245-5.067-3.982-5.067-2.093 0-3.257 1.387-3.8 2.724-.202.48-.17 1.149-.17 1.817v12.031h-7.883s.101-20.38 0-22.232h7.882v3.49c.466-1.527 2.985-3.704 7.004-3.704 4.987 0 8.905 3.198 8.905 10.084v12.362h-7.956zM4.187 7.714C1.647 7.714 0 6.014 0 3.86 0 1.664 1.695 0 4.286 0c2.589 0 4.18 1.66 4.231 3.854 0 2.154-1.642 3.86-4.28 3.86h-.05zm3.738 2.78v22.233H.908V10.495h7.017z"/>
</svg>
