<svg height="48" viewBox="0 0 48 48" width="48" xmlns="http://www.w3.org/2000/svg"><g fill="#50b078" fill-rule="evenodd"><rect fill-opacity=".1" height="48" rx="8" width="48"/><path d="m12.747 24.187a1.564 1.564 0 0 1 -1.111-2.667 1.609 1.609 0 0 1 2.213 0c.297.293.463.694.462 1.111a1.333 1.333 0 1 0 2.667 0 4.178 4.178 0 0 0 -2.96-4.018l-.054-.889a1.333 1.333 0 1 0 -2.666 0v.97a4.222 4.222 0 0 0 1.44 8.195 1.884 1.884 0 1 1 -1.876 1.698 1.34 1.34 0 0 0 -2.666-.267 4.498 4.498 0 0 0 3.084 4.756v1.537a1.333 1.333 0 1 0 2.667 0v-1.475a4.498 4.498 0 0 0 2-1.147 4.551 4.551 0 0 0 -3.218-7.778zm26.009-6.525a4.64 4.64 0 0 0 1.217-3.084c0-3.61-4.115-6.222-9.777-6.222-5.663 0-9.778 2.613-9.778 6.222a4.862 4.862 0 0 0 1.164 3.146 4.738 4.738 0 0 0 -1.164 3.076 4.862 4.862 0 0 0 1.164 3.147 4.738 4.738 0 0 0 -1.164 3.075 4.862 4.862 0 0 0 1.164 3.147 4.738 4.738 0 0 0 -1.164 3.075c0 3.61 3.893 6.223 9.555 6.223 5.663 0 10-2.614 10-6.223a4.756 4.756 0 0 0 -1.217-3.137 4.64 4.64 0 0 0 1.217-3.085 4.756 4.756 0 0 0 -1.217-3.138 4.64 4.64 0 0 0 1.217-3.084 4.756 4.756 0 0 0 -1.217-3.138zm-1.45 9.36c0 1.965-3.404 3.556-7.333 3.556s-6.889-1.591-6.889-3.556a2.142 2.142 0 0 1 .587-1.404 13.262 13.262 0 0 0 6.302 1.404 14.16 14.16 0 0 0 6.658-1.502c.41.395.653.933.676 1.502zm-7.332-6.222a14.16 14.16 0 0 0 6.658-1.502c.41.394.653.933.676 1.502 0 1.964-3.405 3.556-7.334 3.556s-6.889-1.592-6.889-3.556a2.142 2.142 0 0 1 .587-1.404 13.262 13.262 0 0 0 6.302 1.404zm.223-9.778c3.928 0 7.11 1.591 7.11 3.556 0 1.964-3.404 3.555-7.333 3.555s-6.889-1.59-6.889-3.555 3.183-3.556 7.112-3.556zm-.224 25.778c-3.929 0-6.889-1.591-6.889-3.556a2.142 2.142 0 0 1 .587-1.404 13.262 13.262 0 0 0 6.302 1.404 14.16 14.16 0 0 0 6.658-1.502c.41.395.653.933.676 1.502 0 1.965-3.405 3.556-7.334 3.556z"/></g></svg>