<svg xmlns="http://www.w3.org/2000/svg" width="48" height="48" viewBox="0 0 48 48"><g fill="#F8B050" fill-rule="evenodd"><rect width="48" height="48" fill-opacity=".1" rx="8"/><path d="M24.17 9.615c11.538 0 12.307 3.077 12.307 3.077v10.231a15.385 15.385 0 0 1-7.839 13.408l-4.469 2.515-4.469-2.515a15.385 15.385 0 0 1-7.838-13.408v-10.23s0-3.078 12.307-3.078zm0-2.307c-5.47 0-9.44.6-11.8 1.784-2.608 1.308-2.816 3.077-2.816 3.6v10.231a17.692 17.692 0 0 0 9.015 15.385l4.47 2.515a2.305 2.305 0 0 0 2.261 0l4.47-2.515a17.692 17.692 0 0 0 9.015-15.385v-10.23c0-.19-.024-.379-.07-.562-.453-1.8-2.938-4.823-14.546-4.823z"/><path d="M24.17 20.3a1.623 1.623 0 1 1 0 3.246 1.623 1.623 0 0 1 0-3.246zm0-2.308a3.93 3.93 0 1 0 0 7.862 3.93 3.93 0 0 0 0-7.862z"/><path d="M24.938 15.77v1.068a5.23 5.23 0 0 1 2.039.77l.77-.77 1.4 1.377-.77.854c.413.614.69 1.31.815 2.039h1.07v1.538h-1.07a5.223 5.223 0 0 1-.769 2.039l.77.769-1.378 1.4-.853-.77a5.238 5.238 0 0 1-2.039.816v1.177h-1.538v-1.07a5.23 5.23 0 0 1-2.039-.769l-.77.77-1.4-1.377.77-.854a5.238 5.238 0 0 1-.815-2.039h-1.116V21.2h1.07c.11-.726.372-1.42.769-2.038l-.77-.77 1.378-1.4.853.77a5.238 5.238 0 0 1 2.039-.816V15.77h1.584zm.154-2.308h-1.946a2.308 2.308 0 0 1-2.692 1.115 2.3 2.3 0 0 0-1.63.677l-1.378 1.377a8.17 8.17 0 0 1-1.792 4.323V22.9a2.308 2.308 0 0 1 1.115 2.692c0 .612.244 1.199.677 1.631l1.377 1.377a8.177 8.177 0 0 1 4.323 1.792h1.946a2.308 2.308 0 0 1 2.693-1.115c.611 0 1.198-.244 1.63-.677l1.377-1.377a8.17 8.17 0 0 1 1.793-4.323v-1.946a2.308 2.308 0 0 1-1.116-2.692c0-.612-.244-1.199-.677-1.631l-1.377-1.377a8.177 8.177 0 0 1-4.323-1.792z"/></g></svg>