<svg xmlns="http://www.w3.org/2000/svg" width="48" height="48" viewBox="0 0 48 48"><g fill="#F07850" fill-rule="evenodd"><rect width="48" height="48" fill-opacity=".1" rx="8"/><g transform="translate(8 6)"><path d="M30.904 5.336C30.432 3.464 27.848.32 15.776.32 10.088.32 5.96.944 3.504 2.176.792 3.536.576 5.376.576 5.92v10.64a18.4 18.4 0 0 0 9.376 16l4.648 2.616a2.4 2.4 0 0 0 2.352 0L21.6 32.56a18.4 18.4 0 0 0 9.376-16V5.92a2.4 2.4 0 0 0-.072-.584zm-2.328 11.2a16 16 0 0 1-8.152 13.944l-4.648 2.64-4.648-2.616A16 16 0 0 1 2.976 16.56V5.92s0-3.2 12.8-3.2c12 0 12.8 3.2 12.8 3.2v10.616z"/><circle cx="15.376" cy="26.32" r="1.2"/><path d="M15.376 7.12a1.2 1.2 0 0 0-1.2 1.2v12.8a1.2 1.2 0 1 0 2.4 0V8.32a1.2 1.2 0 0 0-1.2-1.2z"/></g></g></svg>