<svg height="48" viewBox="0 0 48 48" width="48" xmlns="http://www.w3.org/2000/svg"><g fill="#50b8b8" fill-rule="evenodd"><rect fill-opacity=".1" height="48" rx="8" width="48"/><path d="m24.176 6.32c-9.72 0-17.6 7.88-17.6 17.6s7.88 17.6 17.6 17.6 17.6-7.88 17.6-17.6-7.88-17.6-17.6-17.6zm9.856 6.04-3.928 3.928-.048.056a9.536 9.536 0 0 0 -11.76 0l-.048-.056-3.928-3.928a15.16 15.16 0 0 1 19.72 0zm-9.856 18.76a7.2 7.2 0 1 1 0-14.4 7.2 7.2 0 0 1 0 14.4zm-15.2-7.2a15.128 15.128 0 0 1 3.64-9.856l3.928 3.928.056.048a9.536 9.536 0 0 0 0 11.76l-.056.048-3.928 3.928a15.128 15.128 0 0 1 -3.64-9.856zm5.344 11.56 3.928-3.928.048-.056a9.536 9.536 0 0 0 11.76 0l.048.056 3.928 3.928a15.16 15.16 0 0 1 -19.72 0zm21.416-1.696-3.96-3.936-.056-.048a9.536 9.536 0 0 0 0-11.76l.056-.048 3.928-3.928a15.16 15.16 0 0 1 0 19.72z"/></g></svg>