<svg height="48" viewBox="0 0 48 48" width="48" xmlns="http://www.w3.org/2000/svg"><g fill="#50b8b8" fill-rule="evenodd"><rect fill-opacity=".1" height="48" rx="8" width="48"/><path d="m15.233 8.298h-4.465c-1.233 0-2.232 1-2.232 2.232v4.465c0 1.233 1 2.233 2.232 2.233h4.465c1.233 0 2.233-1 2.233-2.233v-4.465c0-1.233-1-2.232-2.233-2.232zm0 6.697h-4.465v-4.465h4.465zm11.163-6.697h-4.465c-1.233 0-2.232 1-2.232 2.232v4.465c0 1.233 1 2.233 2.232 2.233h4.465c1.233 0 2.233-1 2.233-2.233v-4.465c0-1.233-1-2.232-2.233-2.232zm0 6.697h-4.465v-4.465h4.465zm11.164-6.697h-4.466c-1.233 0-2.233 1-2.233 2.232v4.465c0 1.233 1 2.233 2.233 2.233h4.465c1.233 0 2.233-1 2.233-2.233v-4.465c0-1.233-1-2.232-2.233-2.232zm0 6.697h-4.466v-4.465h4.465v4.465zm-22.327 4.465h-4.465c-1.233 0-2.232 1-2.232 2.233v4.465c0 1.233 1 2.233 2.232 2.233h4.465c1.233 0 2.233-1 2.233-2.233v-4.465c0-1.233-1-2.233-2.233-2.233zm0 6.698h-4.465v-4.465h4.465zm11.163-6.698h-4.465c-1.233 0-2.232 1-2.232 2.233v4.465c0 1.233 1 2.233 2.232 2.233h4.465c1.233 0 2.233-1 2.233-2.233v-4.465c0-1.233-1-2.233-2.233-2.233zm0 6.698h-4.465v-4.465h4.465zm11.164-6.698h-4.466c-1.233 0-2.233 1-2.233 2.233v4.465c0 1.233 1 2.233 2.233 2.233h4.465c1.233 0 2.233-1 2.233-2.233v-4.465c0-1.233-1-2.233-2.233-2.233zm0 6.698h-4.466v-4.465h4.465v4.465zm-22.327 4.465h-4.465c-1.233 0-2.232 1-2.232 2.233v4.465c0 1.233 1 2.232 2.232 2.232h4.465c1.233 0 2.233-1 2.233-2.232v-4.465c0-1.233-1-2.233-2.233-2.233zm0 6.698h-4.465v-4.465h4.465zm22.327-6.698h-4.466c-1.233 0-2.233 1-2.233 2.233v4.465c0 1.233 1 2.232 2.233 2.232h4.465c1.233 0 2.233-1 2.233-2.232v-4.465c0-1.233-1-2.233-2.233-2.233zm0 6.698h-4.466v-4.465h4.465v4.465zm-11.164-6.698h-4.465c-1.233 0-2.232 1-2.232 2.233v4.465c0 1.233 1 2.232 2.232 2.232h4.465c1.233 0 2.233-1 2.233-2.232v-4.465c0-1.233-1-2.233-2.233-2.233zm0 6.698h-4.465v-4.465h4.465z"/></g></svg>