<svg xmlns="http://www.w3.org/2000/svg" width="48" height="48" viewBox="0 0 48 48"><g fill="#F8B050" fill-rule="evenodd"><rect width="48" height="48" fill-opacity=".1" rx="8"/><path d="M23.58 8.512l5.023 10.883h10.883l-7.535 7.535 1.675 11.721-10.047-6.84-10.046 6.84 2.511-11.72-7.535-7.536h10.047l5.023-10.883zm0-2.512c-.979 0-1.867.57-2.278 1.457l-4.353 9.427h-8.44a2.512 2.512 0 0 0-1.774 4.286l6.563 6.564-2.235 10.381a2.512 2.512 0 0 0 3.868 2.604l8.64-5.86 8.623 5.86a2.512 2.512 0 0 0 3.902-2.428l-1.49-10.482 6.647-6.647a2.512 2.512 0 0 0-1.767-4.278H30.21l-4.354-9.427A2.512 2.512 0 0 0 23.58 6z"/></g></svg>