<svg height="48" viewBox="0 0 48 48" width="48" xmlns="http://www.w3.org/2000/svg"><g fill="#f07850" fill-rule="evenodd"><rect fill-opacity=".1" height="48" rx="8" width="48"/><g transform="translate(6 6)"><path d="m18.176.32c-9.72 0-17.6 7.88-17.6 17.6s7.88 17.6 17.6 17.6 17.6-7.88 17.6-17.6-7.88-17.6-17.6-17.6zm0 32.8c-8.395 0-15.2-6.805-15.2-15.2s6.805-15.2 15.2-15.2 15.2 6.805 15.2 15.2-6.805 15.2-15.2 15.2z"/><path d="m18.176 5.92c-6.627 0-12 5.373-12 12s5.373 12 12 12 12-5.373 12-12-5.373-12-12-12zm0 21.6a9.6 9.6 0 1 1 0-19.2 9.6 9.6 0 0 1 0 19.2z"/><path d="m18.176 11.52a6.4 6.4 0 1 0 0 12.8 6.4 6.4 0 0 0 0-12.8zm0 10.4a4 4 0 1 1 0-8 4 4 0 0 1 0 8z"/><circle cx="18.176" cy="17.92" r="1.2"/></g></g></svg>