<svg height="48" viewBox="0 0 48 48" width="48" xmlns="http://www.w3.org/2000/svg"><g fill="#f07850" fill-rule="evenodd"><rect fill-opacity=".1" height="48" rx="8" width="48"/><path d="m24.176 6.32c-9.72 0-17.6 7.88-17.6 17.6s7.88 17.6 17.6 17.6 17.6-7.88 17.6-17.6-7.88-17.6-17.6-17.6zm0 32.8c-8.395 0-15.2-6.805-15.2-15.2s6.805-15.2 15.2-15.2 15.2 6.805 15.2 15.2-6.805 15.2-15.2 15.2z"/><path d="m21.776 19.12a4 4 0 1 0 -8 0 4 4 0 0 0 8 0zm-5.6 0a1.6 1.6 0 1 1 3.2 0 1.6 1.6 0 0 1 -3.2 0zm12.8 7.2a4 4 0 1 0 0 8 4 4 0 0 0 0-8zm0 5.6a1.6 1.6 0 1 1 0-3.2 1.6 1.6 0 0 1 0 3.2zm3.248-16.048a1.2 1.2 0 0 0 -1.696 0l-15.2 15.2a1.2 1.2 0 1 0 1.696 1.696l15.2-15.2a1.2 1.2 0 0 0 0-1.696z"/></g></svg>