<svg xmlns="http://www.w3.org/2000/svg" width="48" height="48" viewBox="0 0 48 48">
    <g fill="#F07850" fill-rule="evenodd">
        <rect width="48" height="48" fill-opacity=".1" rx="8"/>
        <path d="M24.176 6.32c-9.72 0-17.6 7.88-17.6 17.6 0 9.72 7.88 17.6 17.6 17.6 9.72 0 17.6-7.88 17.6-17.6 0-9.72-7.88-17.6-17.6-17.6zm0 32.8c-8.395 0-15.2-6.805-15.2-15.2s6.805-15.2 15.2-15.2 15.2 6.805 15.2 15.2-6.805 15.2-15.2 15.2z"/>
        <path d="M21.776 19.12a4 4 0 1 0-8 0 4 4 0 0 0 8 0zm-5.6 0a1.6 1.6 0 1 1 3.2 0 1.6 1.6 0 0 1-3.2 0zM28.976 26.32a4 4 0 1 0 0 8 4 4 0 0 0 0-8zm0 5.6a1.6 1.6 0 1 1 0-3.2 1.6 1.6 0 0 1 0 3.2zM32.224 15.872a1.2 1.2 0 0 0-1.696 0l-15.2 15.2a1.2 1.2 0 1 0 1.696 1.696l15.2-15.2a1.2 1.2 0 0 0 0-1.696z"/>
    </g>
</svg>
