<svg height="48" viewBox="0 0 48 48" width="48" xmlns="http://www.w3.org/2000/svg"><g fill="#483898" fill-rule="evenodd"><path d="m23.787 27.59c4.198 0 7.619-4.099 7.619-9.142 0-5.044-3.421-9.143-7.62-9.143-4.197 0-7.618 4.099-7.618 9.143 0 5.043 3.428 9.142 7.619 9.142zm0-16c2.948 0 5.333 3.048 5.333 6.858s-2.385 6.857-5.333 6.857c-2.949 0-5.334-3.048-5.334-6.857 0-3.81 2.385-6.858 5.334-6.858z"/><path d="m30.758 26.829a1.149 1.149 0 0 0 -.228 2.285 7.421 7.421 0 0 1 6.537 6.857h-26.56a7.482 7.482 0 0 1 6.537-6.857 1.149 1.149 0 1 0 -.229-2.285c-.084 0-8.647.975-8.647 10.278 0 .63.511 1.143 1.142 1.143h28.953c.631 0 1.143-.512 1.143-1.143 0-9.303-8.564-10.278-8.648-10.278z"/><rect fill-opacity=".1" height="48" rx="8" width="48"/></g></svg>