<svg xmlns="http://www.w3.org/2000/svg" width="39" height="32" viewBox="0 0 39 32">
    <path fill="#FFF" fill-rule="evenodd" d="M34.19 5.007A7.977 7.977 0 0 0 37.618.586a15.355 15.355 0 0 1-4.953 1.937A7.688 7.688 0 0 0 26.975 0c-4.303 0-7.793 3.58-7.793 7.994 0 .627.066 1.235.2 1.82-6.48-.333-12.223-3.513-16.07-8.355a8.14 8.14 0 0 0-1.055 4.023c0 2.773 1.376 5.22 3.468 6.654a7.654 7.654 0 0 1-3.533-.997v.098c0 3.875 2.688 7.107 6.257 7.838a7.434 7.434 0 0 1-2.055.282c-.501 0-.992-.048-1.467-.142.992 3.175 3.87 5.487 7.282 5.549a15.394 15.394 0 0 1-9.682 3.424c-.63 0-1.251-.037-1.86-.11 3.45 2.264 7.55 3.589 11.95 3.589 14.342 0 22.182-12.18 22.182-22.745 0-.347-.007-.695-.02-1.036a16 16 0 0 0 3.888-4.137 15.228 15.228 0 0 1-4.477 1.258z"/>
</svg>
